# xmcd
#
# Track frame offsets:
#	150
#	4569
#	17241
#	30802
#	43507
#	60167
#	71704
#	83572
#	97491
#	107276
#	115221
#	126504
#	139052
#	151963
#	163301
#	179113
#	187306
#	199278
#	215221
#	225038
#
# Disc length: 3041 seconds
#
# Revision: 0
# Processed by: cddbd v1.5PL3 Copyright (c) Steve Scherf et al.
# Submitted via: dBpowerAMP V4.0
#
DISCID=160bdf14
DTITLE=Hank Williams - Lovesick Blues
DYEAR=1900
DGENRE=Country
TTITLE0=Happy Rovin' Cowboy
TTITLE1=Lovesick Blues
TTITLE2=Mansion On The Hill
TTITLE3=You're Gonna Change (Or I'm Gonna Leave)
TTITLE4=Tramp On The Street
TTITLE5=I'm A Long Gone Daddy
TTITLE6=When God Comes And Gathers His Jewels
TTITLE7=Lost Highway
TTITLE8=I'll Have A New Body (I'll Have aA New Life)
TTITLE9=I Can't Get You Off Of My Mind
TTITLE10=Prodigal Son
TTITLE11=Pan American
TTITLE12=There'll Be No Teardrops Tonight
TTITLE13=Mind Your Own Business
TTITLE14=Wedding Bells
TTITLE15=I've Just Told Mama Goodbye
TTITLE16=I'm So Lonesome I Could Cry
TTITLE17=Thy Burdens Are Greater Than Mine
TTITLE18=I Saw The Light
TTITLE19=Sally Goodin
EXTD=
EXTT0=
EXTT1=
EXTT2=
EXTT3=
EXTT4=
EXTT5=
EXTT6=
EXTT7=
EXTT8=
EXTT9=
EXTT10=
EXTT11=
EXTT12=
EXTT13=
EXTT14=
EXTT15=
EXTT16=
EXTT17=
EXTT18=
EXTT19=
PLAYORDER=
